<svg xmlns="http://www.w3.org/2000/svg" width="497" height="311.136" viewBox="0 0 497 311.136">
  <g id="Asset_1" data-name="Asset 1" transform="translate(0 -0.01)">
    <g id="Layer_2" data-name="Layer 2" transform="translate(0 0.01)">
      <g id="Capa_1" data-name="Capa 1">
        <path id="Path_101" data-name="Path 101" d="M15,171.893s2.768-2.549,8.045,2.053l2.46-3.819S19.553,165.444,15,171.893Z" transform="translate(-0.12 -1.355)" fill="#00844c"/>
        <path id="Path_102" data-name="Path 102" d="M24.694,160.68s-3.284,4.077,1.438,8.71L22.977,172.6S15.646,163.656,24.694,160.68Z" transform="translate(-0.161 -1.293)" fill="#00844c"/>
        <path id="Path_103" data-name="Path 103" d="M11.18,271.075a27.975,27.975,0,0,1,14.761-11.289l21.616-8.016H68.2l21.616,8.016a28,28,0,0,1,14.761,11.289Z" transform="translate(-0.089 -2.02)" fill="#a4def6"/>
        <path id="Path_104" data-name="Path 104" d="M86.635,313.207h33.4c0-5.7-.377-13.839-.377-13.839-1.984-34.155-26.854-39.522-26.854-39.522-19.414-4.7-8.829,25.316-8.829,25.316C83.471,292.4,84.542,302.136,86.635,313.207Z" transform="translate(-0.647 -2.081)" fill="#4cba74"/>
        <rect id="Rectangle_61" data-name="Rectangle 61" width="28.332" height="27.628" transform="translate(43.629 229.483)" fill="#b7b7b7"/>
        <path id="Path_105" data-name="Path 105" d="M72.312,244.177V231.34H44V237.7C52.055,244.425,61.8,245.278,72.312,244.177Z" transform="translate(-0.351 -1.857)" fill="#70a08b"/>
        <path id="Path_106" data-name="Path 106" d="M102.2,313.158c.536-14.88.377-18.987.238-24.066-.3-11.319-2.718-20.882-10.178-29.284h0l-20.2-6.587s4.246,7.43-14.315,7.43c0,0-12.232-.476-14.017-7.43L23.135,259.8S5.6,264.112,2.59,282.564l10.327,18.957-.367,11.636Z" transform="translate(-0.021 -2.032)" fill="#00844c"/>
        <path id="Path_107" data-name="Path 107" d="M94.607,196.29c.8-6.359-.556-12.44-.486-18.7,0-4.206-.774-10.545-5.952-11.081-7.232-.734-9.474,11.765-9.92,17.182-.585,7.47,1.27,15.545,2.708,22.816.516,2.639.466,7.936,3.432,9.186,2.54,1.091,5.139-1.478,6.438-3.383C93.933,207.738,93.933,201.607,94.607,196.29Z" transform="translate(-0.624 -1.339)" fill="#00844c"/>
        <path id="Path_108" data-name="Path 108" d="M88.838,226.9C85.981,238.113,80.9,241.2,80.9,241.2l-6.766,1.319c-3.889-.5-10.6-2.073-10.6-2.073-15.446-5.258-19.93-6.676-22.32-12.549-.1-.248-12.182-42.181-12.182-42.181-1.984-21.576,20.614-26.07,24.027-26.636,3.373-.774,24.88-6.756,31.229,13.968C84.314,173.046,93.708,197.043,88.838,226.9Z" transform="translate(-0.231 -1.269)" fill="#b7b7b7"/>
        <path id="Path_109" data-name="Path 109" d="M95.863,152.075c1.23,6.7.079,15.971-5.109,20.247-5.635,4.643-10.476,3.383-17.261,4.891-7.053,1.567-14.265,2.182-21.358,3.561-4.96.992-10.694,1.508-12.976,6.775-2.976,6.944-3.621,16.041-1.587,22.816,1.7,5.654,2.212,11.15,4.067,18.5a65.473,65.473,0,0,1-11.378-13.035c-3.194-5.625-3.194-5.625-6.805-15.4-2.113-5.734-3.968-10.773-4.206-16.676-.347-7.629,3.343-10.912,7.41-17.946,3.819-6.577,9.206-11.13,16.15-13.214,0,0,35.465,1.984,34.8-6.111,0,0,8.511,2.173,6.944,7.837,0,0,8.928-1.627,7.023-7.837a8.3,8.3,0,0,1,4.286,5.585Z" transform="translate(-0.154 -1.18)" fill="#00844c"/>
        <path id="Path_110" data-name="Path 110" d="M39.072,209.38s-3.819-8.353-9.831-3.393c0,0-2.728,2.133.635,7.7,0,0,4.891,8.006,10.753,3.571Z" transform="translate(-0.225 -1.642)" fill="#b7b7b7"/>
        <path id="Path_111" data-name="Path 111" d="M38.494,189.85s0,14.88,2.768,22.816l-2.907.575S36.828,203.024,31.57,202.9Z" transform="translate(-0.252 -1.526)" fill="#00844c"/>
        <path id="Path_112" data-name="Path 112" d="M31.219,313.221H0s.109-7.41.129-7.936a147.394,147.394,0,0,1,1.984-21.824c1.875-10.267,6.865-19.374,17.856-21.983,5.03-1.19,9.494,1.845,12.212,5.952C32.181,267.47,37.151,273.59,31.219,313.221Z" transform="translate(0 -2.096)" fill="#4cba74"/>
        <path id="Path_113" data-name="Path 113" d="M322.809,248.6c-5.149-1.865-8.383-6.16-14.493-5.625-10.863.992-18.571,13.164-29.026,4.881-12.658-10.029-9.335-70.433-3.849-84.054,4.653-11.6,13.233-.258,25.475-4.157,14.216-4.524,26.477,6.7,33.828,18.352a70.225,70.225,0,0,1,10.466,41.813C344.168,232.96,341.8,255.5,322.809,248.6Z" transform="translate(-2.16 -1.275)" fill="#00844c"/>
        <path id="Path_114" data-name="Path 114" d="M371.915,313.247H345.249l-4.772-19.255s-3.879-29.225,16.16-29.632c0,0,10.406,7.291,13.243,24.443C369.881,288.8,372.123,302.513,371.915,313.247Z" transform="translate(-2.716 -2.121)" fill="#4cba74"/>
        <path id="Path_115" data-name="Path 115" d="M278.62,313.285l3.591-14.523s3.879-29.225-16.16-29.632c0,0-12.023,8.75-10.912,44.155H278.67" transform="translate(-2.036 -2.159)" fill="#4cba74"/>
        <rect id="Rectangle_62" data-name="Rectangle 62" width="24.334" height="35.623" transform="translate(296.722 219.989)" fill="#b7b7b7"/>
        <path id="Path_116" data-name="Path 116" d="M323.444,236.3V221.77H299.11v20.941C307.135,242.463,316.659,241.015,323.444,236.3Z" transform="translate(-2.388 -1.781)" fill="#70a08b"/>
        <path id="Path_117" data-name="Path 117" d="M266.6,268.982a26.636,26.636,0,0,1,14.037-10.743L301.2,250.63h19.622l25.148,7.609a26.6,26.6,0,0,1,14.037,10.744Z" transform="translate(-2.129 -2.011)" fill="#b7b7b7"/>
        <path id="Path_118" data-name="Path 118" d="M271.609,313.151h81.008l-.516-15.218,11.9-18.025a26.437,26.437,0,0,0-18.065-21.656l-19.84-5.635s1.181,6.448-15.158,6.448c0,0-13.124,0-14.692-6.617l-15.684,5.8a33.252,33.252,0,0,0-17.757,15.128l8.759,24.552Z" transform="translate(-2.098 -2.026)" fill="#4cba74"/>
        <path id="Path_119" data-name="Path 119" d="M325.91,224.07a16.08,16.08,0,0,1-3.611,5.268,44.562,44.562,0,0,1-13.948,9.166c-6.369,2.619-15.971,2.976-21.021-2.292-4.1-4.246-6.349-10.684-8.125-16.2-3.462-10.724-3.413-22.439-2.54-33.58.2-2.549.456-5.089.883-7.6,3.968-24.3,24.741-24.245,24.741-24.245,15.7-.684,30.028,6.736,32.439,23.273.933,6.339-.288,13.144-.605,19.473a50.769,50.769,0,0,1-2.3,13.739C330.3,215.609,327.794,219.7,325.91,224.07Z" transform="translate(-2.205 -1.244)" fill="#b7b7b7"/>
        <path id="Path_120" data-name="Path 120" d="M274.979,200.664c-5.873-18.164-1.141-39.522,5.873-46.208,19.84-18.948,56.545-11.736,67.765,17.856,3.462,9.146,1.835,43.272.268,53.757-2.1,14.047-7.271,23.679-17.946,23.679.288-11.587-.6-24.423.427-38.589s-.853-14.394-12.539-20.932a34.84,34.84,0,0,1-12.817-11.9c-4.474-6.527-1.1-8.819-9.92-8.521C296.029,169.792,275.455,169.1,274.979,200.664Z" transform="translate(-2.174 -1.159)" fill="#00844c"/>
        <path id="Path_121" data-name="Path 121" d="M328.35,205.952s2.073-8.65,8.73-5.079c0,0,2.976,1.528.833,7.46,0,0-3.155,8.541-9.563,5.416Z" transform="translate(-2.622 -1.607)" fill="#b7b7b7"/>
        <path id="Path_122" data-name="Path 122" d="M391.81,271.075a28.015,28.015,0,0,1,14.771-11.289L428.2,251.77h20.644l21.616,8.016a28,28,0,0,1,14.791,11.289Z" transform="translate(-3.128 -2.02)" fill="#a4def6"/>
        <path id="Path_123" data-name="Path 123" d="M467.266,313.207h33.421c0-5.7-.367-13.839-.367-13.839-1.984-34.155-26.854-39.522-26.854-39.522-19.414-4.7-8.829,25.316-8.829,25.316C464.1,292.4,465.182,302.136,467.266,313.207Z" transform="translate(-3.687 -2.081)" fill="#4cba74"/>
        <rect id="Rectangle_63" data-name="Rectangle 63" width="28.332" height="27.628" transform="translate(421.22 229.483)" fill="#b7b7b7"/>
        <path id="Path_124" data-name="Path 124" d="M452.952,244.177V231.34H424.61V237.7C432.695,244.425,442.436,245.278,452.952,244.177Z" transform="translate(-3.39 -1.857)" fill="#70a08b"/>
        <path id="Path_125" data-name="Path 125" d="M482.779,313.158c.546-14.88.377-18.987.248-24.066-.3-11.319-2.718-20.882-10.178-29.284h0l-20.207-6.587s4.256,7.43-14.315,7.43c0,0-12.222-.476-14.017-7.43l-20.5,6.587s-17.539,4.315-20.545,22.767l10.307,18.957-.367,11.636Z" transform="translate(-3.06 -2.032)" fill="#4cba74"/>
        <path id="Path_126" data-name="Path 126" d="M472.786,189.663c0-6.557-.278-13.114-.129-19.672.1-4.2.486-3.115-4.365-3.571-6.736-.645-8.978,11.9-9.454,17.271-.655,7.45.992,15.475,2.2,22.747.446,2.619.327,7.936,3.075,9.117,2.351,1.052,4.8-1.548,6.041-3.462,2.837-4.424,2.331-11.18,2.52-16.19C472.757,193.78,472.786,191.8,472.786,189.663Z" transform="translate(-3.662 -1.338)" fill="#00844c"/>
        <path id="Path_127" data-name="Path 127" d="M469.518,226.9c-2.867,11.21-7.936,14.295-7.936,14.295l-6.766,1.319c-3.889-.5-10.6-2.073-10.6-2.073-15.456-5.258-19.93-6.676-22.32-12.549-.109-.248-12.182-42.181-12.182-42.181-1.984-21.576,20.614-26.07,24.027-26.636,3.373-.774,24.88-6.756,31.229,13.968A113.028,113.028,0,0,1,469.518,226.9Z" transform="translate(-3.27 -1.269)" fill="#b7b7b7"/>
        <path id="Path_128" data-name="Path 128" d="M407.3,166c-7.51,3.621-7.767,10.317-7.41,17.946.268,5.9,2.093,10.912,4.206,16.676,3.6,9.771,3.6,9.771,6.8,15.4a65.7,65.7,0,0,0,11.388,13.035c-1.855-7.351-2.371-12.847-4.067-18.5-2.034-6.775-1.438-15.872,1.577-22.816,0,0,1.716-4.633,8.74-5.952h0L407.3,166" transform="translate(-3.192 -1.335)" fill="#00844c"/>
        <path id="Path_129" data-name="Path 129" d="M419.7,209.38s-3.819-8.323-9.821-3.393c0,0-2.728,2.133.635,7.7,0,0,4.891,8.006,10.744,3.571Z" transform="translate(-3.264 -1.642)" fill="#b7b7b7"/>
        <path id="Path_130" data-name="Path 130" d="M419.134,189.85s0,14.88,2.768,22.816l-2.907.575s-1.528-10.218-6.785-10.337Z" transform="translate(-3.291 -1.526)" fill="#00844c"/>
        <path id="Path_131" data-name="Path 131" d="M476.086,157.592c24.146,24.592-48.926,24.344-48.926,24.344s-7.668,3.541-19.84-16.13c0,0-3.274-15.386,31.278-20.227C438.637,145.578,461.483,142.781,476.086,157.592Z" transform="translate(-3.251 -1.171)" fill="#00844c"/>
        <path id="Path_132" data-name="Path 132" d="M411.859,313.221H380.64s.109-7.41.129-7.936a147.387,147.387,0,0,1,1.984-21.824c1.875-10.267,6.865-19.374,17.856-21.983,5.02-1.19,9.494,1.845,12.212,5.952C412.821,267.47,417.791,273.59,411.859,313.221Z" transform="translate(-3.039 -2.096)" fill="#4cba74"/>
        <path id="Path_133" data-name="Path 133" d="M168.409,152.13s-26.07,7.837-23.62,49.1V290.2H174.45Z" transform="translate(-1.155 -1.225)" fill="#00844c"/>
        <path id="Path_134" data-name="Path 134" d="M165.61,178.785V306.6h56.7V198.943s3.73-41.3-23.372-46.367C198.942,152.576,165.61,146.535,165.61,178.785Z" transform="translate(-1.322 -1.225)" fill="#00844c"/>
        <rect id="Rectangle_64" data-name="Rectangle 64" width="39.433" height="19.523" transform="translate(162.859 259.402)" fill="#70a08a"/>
        <path id="Path_135" data-name="Path 135" d="M247.485,313.247H220.819l-4.762-19.255s-3.879-29.225,16.16-29.632c0,0,10.4,7.291,13.233,24.443C245.451,288.8,247.743,302.513,247.485,313.247Z" transform="translate(-1.723 -2.121)" fill="#b7b7b7"/>
        <path id="Path_136" data-name="Path 136" d="M154.19,313.259l3.591-14.523s6.369-32.439-13.67-32.846c0,0-14.513,11.964-13.462,47.369H154.18" transform="translate(-1.043 -2.133)" fill="#b7b7b7"/>
        <rect id="Rectangle_65" data-name="Rectangle 65" width="24.324" height="35.623" transform="translate(173.295 219.989)" fill="#b7b7b7"/>
        <path id="Path_137" data-name="Path 137" d="M199.014,236.3V221.77H174.69v20.941C182.715,242.463,192.239,241.015,199.014,236.3Z" transform="translate(-1.395 -1.781)" fill="#70a08b"/>
        <path id="Path_138" data-name="Path 138" d="M142.18,268.982a26.6,26.6,0,0,1,14.037-10.744l20.564-7.609H196.4l25.138,7.609a26.6,26.6,0,0,1,14.047,10.744Z" transform="translate(-1.135 -2.011)" fill="#b7b7b7"/>
        <path id="Path_139" data-name="Path 139" d="M147.226,297.934v15.218H226.19l-.923-17.678c-.992-34.046,2.827-34.056,2.827-34.056a24.57,24.57,0,0,0-6.537-3.165l-19.84-5.635s-4.286,18.461-20.624,18.461c0,0-12.648-6.815-9.216-18.63l-15.684,5.8a33.113,33.113,0,0,0-12,7.529S147.027,267.5,147.226,297.934Z" transform="translate(-1.151 -2.026)" fill="#4cba74"/>
        <path id="Path_140" data-name="Path 140" d="M201.48,224.07a15.932,15.932,0,0,1-3.611,5.268,44.333,44.333,0,0,1-13.948,9.166c-6.359,2.619-15.962,2.976-21.021-2.292-4.1-4.246-6.339-10.684-8.125-16.2-3.452-10.724-3.413-22.439-2.53-33.58.2-2.549.456-5.089.883-7.6,3.968-24.3,24.741-24.245,24.741-24.245,15.694-.684,30.028,6.736,32.439,23.273.923,6.339-.3,13.144-.615,19.473a50.762,50.762,0,0,1-2.292,13.739C205.884,215.609,203.374,219.7,201.48,224.07Z" transform="translate(-1.212 -1.244)" fill="#b7b7b7"/>
        <path id="Path_141" data-name="Path 141" d="M203.93,205.952s2.073-8.65,8.72-5.079c0,0,2.976,1.528.843,7.46,0,0-3.155,8.541-9.573,5.416Z" transform="translate(-1.628 -1.607)" fill="#b7b7b7"/>
        <path id="Path_142" data-name="Path 142" d="M150.65,181.574c-1.121-33.352,30.534-31.745,30.534-31.745,31.12,1.27,32.667,15.366,32.667,15.366,3.76,17.856-1.627,35.256-1.627,35.256-6.607-1.438-7.728,7.41-7.728,7.41.694-14.176-.466-15.039-.466-15.039a140.116,140.116,0,0,1-17.321-1.161l-.446-9.92-2.43,9.365a158.406,158.406,0,0,1-29.175-3.839s-3.968.278-3.968,12.311Z" transform="translate(-1.203 -1.206)" fill="#00844c"/>
        <path id="Path_143" data-name="Path 143" d="M498.517,50.935a44.294,44.294,0,0,0-9.057-20.693C473.955,10.768,440.643,5.163,420.7,20.847c-21.368,16.8-36.506,55.86-11.259,73.925a49.176,49.176,0,0,0,9.573,5.258C418.1,104.285,416.041,111.4,412,114.1c0,0,15.148,1.161,20.832-10,22.469,4.176,49.154-1.429,59.521-19.979A51.784,51.784,0,0,0,498.517,50.935Z" transform="translate(-3.164 -0.104)" fill="#70a08b"/>
        <path id="Path_144" data-name="Path 144" d="M450.95,89.741c-9.92-1.26-19.463-5.367-25.346-13.769-5.952-8.571-8.333-19.463-7.658-29.82.635-9.831,3.432-19.84,10.833-26.784a44.074,44.074,0,0,1,9.146-6.478A42.082,42.082,0,0,0,420.7,20.826c-21.368,16.8-36.506,55.86-11.259,73.925a49.175,49.175,0,0,0,9.573,5.258c-.913,4.256-2.976,11.368-7.014,14.067,0,0,15.148,1.161,20.832-10,22.469,4.176,49.154-1.428,59.521-19.979a54.942,54.942,0,0,0,2.738-5.654C483.062,88.293,466.118,91.666,450.95,89.741Z" transform="translate(-3.164 -0.113)" fill="#00844c"/>
        <circle id="Ellipse_3" data-name="Ellipse 3" cx="5.863" cy="5.863" r="5.863" transform="translate(422.291 55.503)" fill="#fff"/>
        <path id="Path_145" data-name="Path 145" d="M456.1,61.013a5.863,5.863,0,1,1-5.863-5.863,5.863,5.863,0,0,1,5.863,5.863Z" transform="translate(-3.548 -0.45)" fill="#fff"/>
        <circle id="Ellipse_4" data-name="Ellipse 4" cx="5.863" cy="5.863" r="5.863" transform="translate(459.353 53.886)" fill="#fff"/>
        <path id="Path_146" data-name="Path 146" d="M239.234,24.9,147.8,32.023a11.23,11.23,0,0,0-11.23,11.23l7.123,44.8a11.23,11.23,0,0,0,11.22,11.23l4.325.268h0s2.569,9.662-2.46,14.682c0,0,14.969-3.621,17.38-13.769l57.973,3.561a11.22,11.22,0,0,0,11.21-11.22l7.123-56.674a11.23,11.23,0,0,0-11.23-11.23Z" transform="translate(-1.09 -0.209)" fill="#70a08b"/>
        <path id="Path_147" data-name="Path 147" d="M250.255,34.03c-.139,3.045-.377,6.1-.724,9.136-.7,6.279-1.647,12.539-2.758,18.749-.992,5.6-2.192,11.378-4.742,16.507-4.286,8.611-13.541,11.8-22.539,13.144-9.4,1.409-18.848.933-28.312,1.508a147.252,147.252,0,0,1-15.654.466c-4.494-.2-9.563-.575-13.531-2.9-7.678-4.484-8.928-15.624-9.92-23.541-1.2-9.017-3.482-20.832,2.768-28.54,2.9-3.581,6.627-5.168,10.912-6.666,1.4-.5,3.174-.992,4.96-1.607L147.9,32.066A11.23,11.23,0,0,0,136.57,43.3l7.123,44.8a11.23,11.23,0,0,0,11.22,11.23l4.325.268h0s2.569,9.662-2.46,14.682c0,0,14.969-3.621,17.38-13.769l57.973,3.561a11.22,11.22,0,0,0,11.21-11.22l7.123-56.674A11.7,11.7,0,0,0,250.255,34.03Z" transform="translate(-1.09 -0.252)" fill="#00844c"/>
        <path id="Path_148" data-name="Path 148" d="M228.372,54.981a2.3,2.3,0,0,1-2.3,2.3H161.321a2.3,2.3,0,0,1-2.321-2.3h0a2.3,2.3,0,0,1,2.3-2.311H226.05a2.3,2.3,0,0,1,2.321,2.311Z" transform="translate(-1.269 -0.43)" fill="#fff"/>
        <path id="Path_149" data-name="Path 149" d="M228.372,64.761a2.3,2.3,0,0,1-2.3,2.311H161.321A2.3,2.3,0,0,1,159,64.761h0a2.3,2.3,0,0,1,2.3-2.3H226.05a2.3,2.3,0,0,1,2.3,2.3Z" transform="translate(-1.269 -0.509)" fill="#fff"/>
        <path id="Path_150" data-name="Path 150" d="M228.372,74.551a2.3,2.3,0,0,1-2.3,2.311H161.321A2.3,2.3,0,0,1,159,74.551h0a2.3,2.3,0,0,1,2.3-2.3H226.05a2.3,2.3,0,0,1,2.3,2.3Z" transform="translate(-1.269 -0.587)" fill="#fff"/>
        <path id="Path_151" data-name="Path 151" d="M13.113,24.414c8.144-9.623,22.876-8.521,34.215-7.49,17.856,1.617,35.782,2.053,53.489,4.851,24.523,3.889,30.425,18.848,30.415,41.665,0,13.382-3.621,27.945-16.19,34.721a48.609,48.609,0,0,1-4.712,2.212c.1,3.849,1.567,9.513,8.283,13.65,0,0-17.231,1.885-21.477-9.92-16.656,2.976-35.534,1.1-50.93.427-20.2-.853-40.246-7.5-44.214-29.81C-1.192,57.072,4.125,35.019,13.113,24.414Z" transform="translate(-0.008 -0.14)" fill="#4cba74"/>
        <path id="Path_152" data-name="Path 152" d="M12.528,25.188A41.734,41.734,0,0,0,8.371,37.955a85.314,85.314,0,0,0-.278,18.491c.843,10.019,3.492,20.118,11.984,26.288,7.857,5.734,17.7,7.718,27.062,9.613A123.924,123.924,0,0,0,72.227,94.8c8.254-.06,16.944-.992,24.433-4.712A27.231,27.231,0,0,0,111.352,72.6a75.5,75.5,0,0,0,2.232-24.314c-.565-7.827-2.3-16.1-6.944-22.588a24.948,24.948,0,0,0-2.788-3.284c21.983,4.613,27.4,19.205,27.39,41.1,0,13.382-3.621,27.945-16.19,34.721a48.611,48.611,0,0,1-4.712,2.212c.1,3.849,1.567,9.513,8.283,13.65,0,0-17.231,1.885-21.477-9.92-16.656,2.976-35.534,1.1-50.93.427-20.207-.873-40.256-7.519-44.224-29.83C-1.122,57.508,3.9,36.04,12.528,25.188Z" transform="translate(-0.008 -0.189)" fill="#00844c"/>
        <path id="Path_153" data-name="Path 153" d="M60.64,49.367a2.788,2.788,0,0,0,2.788,2.788h37.955a2.788,2.788,0,0,0,2.8-2.788h0a2.8,2.8,0,0,0-2.8-2.8H63.428a2.788,2.788,0,0,0-2.788,2.8Z" transform="translate(-0.484 -0.382)" fill="#fff"/>
        <path id="Path_154" data-name="Path 154" d="M28.79,49.367a2.788,2.788,0,0,0,2.8,2.788H52.152a2.788,2.788,0,0,0,2.788-2.788h0a2.788,2.788,0,0,0-2.788-2.8H31.587a2.8,2.8,0,0,0-2.8,2.8Z" transform="translate(-0.23 -0.382)" fill="#fff"/>
        <path id="Path_155" data-name="Path 155" d="M74.42,62.778a2.788,2.788,0,0,0,2.8,2.788h24.275a2.788,2.788,0,0,0,2.8-2.788h0a2.8,2.8,0,0,0-2.8-2.778H77.217a2.8,2.8,0,0,0-2.8,2.8Z" transform="translate(-0.594 -0.489)" fill="#fff"/>
        <path id="Path_156" data-name="Path 156" d="M28.79,62.778a2.788,2.788,0,0,0,2.8,2.788H66.546a2.788,2.788,0,0,0,2.788-2.788h0A2.788,2.788,0,0,0,66.546,60H31.587a2.8,2.8,0,0,0-2.8,2.8Z" transform="translate(-0.23 -0.489)" fill="#fff"/>
        <path id="Path_157" data-name="Path 157" d="M60.64,75.388a2.788,2.788,0,0,0,2.788,2.8H81.016a2.788,2.788,0,0,0,2.8-2.8h0A2.788,2.788,0,0,0,81.026,72.6h-17.6a2.788,2.788,0,0,0-2.788,2.788Z" transform="translate(-0.484 -0.59)" fill="#fff"/>
        <path id="Path_158" data-name="Path 158" d="M86.19,75.388a2.8,2.8,0,0,0,2.788,2.8h12.6a2.8,2.8,0,0,0,2.8-2.8h0a2.788,2.788,0,0,0-2.8-2.788h-12.6a2.788,2.788,0,0,0-2.8,2.788Z" transform="translate(-0.688 -0.59)" fill="#fff"/>
        <path id="Path_159" data-name="Path 159" d="M28.79,75.388a2.8,2.8,0,0,0,2.8,2.8H52.152a2.788,2.788,0,0,0,2.788-2.8h0A2.788,2.788,0,0,0,52.152,72.6H31.587a2.788,2.788,0,0,0-2.8,2.788Z" transform="translate(-0.23 -0.59)" fill="#fff"/>
        <path id="Path_160" data-name="Path 160" d="M391.228,41.863a21.537,21.537,0,0,0-29.3-20.118,26.606,26.606,0,0,0-51.089-4.414A11.368,11.368,0,0,0,292.9,26.6a12.283,12.283,0,0,0,.188,1.984,15.257,15.257,0,1,0-12.341,27.776,21.646,21.646,0,0,0,25.078,34.086,21.547,21.547,0,0,0,42.19,4.325,21.556,21.556,0,1,0,28.391-32.429,21.566,21.566,0,0,0,14.821-20.475Z" transform="translate(-2.159 -0.01)" fill="#4cba74"/>
        <path id="Path_161" data-name="Path 161" d="M391.226,42.031a21.567,21.567,0,0,0-16.4-20.942c4.616,4.356,8.039,10.814,8.207,17.183s-1.855,13.888-7.123,17.856c-2.282,1.716-6.895,3.889-9.841,3.6,4.137,5.327,5.635,11.993-.387,17.38-6.736,6.012-14.88,5.367-20.267-1.061.139,5.436-1.667,12.49-6.488,15.545a22.965,22.965,0,0,1-14.186,3.333c-9.414-1.151-14.88-8-15.723-17.122.05.516-2.976,2.43-3.432,2.748a16.061,16.061,0,0,1-3.77,1.984c-9,3.274-20.505-4.256-19.523-14.067a28.351,28.351,0,0,1,3.1-10.307c.744-1.29,2.857-4.5,4.692-4.385-11.9-.784-14.721-20.832-1.359-26.7a15.466,15.466,0,0,0-3.2-.347,15.257,15.257,0,0,0-4.772,29.76,21.646,21.646,0,0,0,25.078,34.086,21.547,21.547,0,0,0,42.19,4.325,21.556,21.556,0,1,0,28.391-32.429A21.566,21.566,0,0,0,391.226,42.031Z" transform="translate(-2.157 -0.178)" fill="#00844c"/>
        <path id="Path_162" data-name="Path 162" d="M296,105.907c-2.063,2.47-6.359,2.292-9.6-.407s-4.186-6.885-2.133-9.365,6.359-2.292,9.6.407S298.05,103.477,296,105.907Z" transform="translate(-2.261 -0.764)" fill="#4cba74"/>
        <path id="Path_163" data-name="Path 163" d="M284.732,111.46c-1.567,1.875-4.831,1.746-7.281-.308s-3.184-5.228-1.617-7.1,4.821-1.736,7.271.308S286.289,109.585,284.732,111.46Z" transform="translate(-2.196 -0.83)" fill="#4cba74"/>
        <path id="Path_164" data-name="Path 164" d="M274.765,113.95c-1.1,1.319-3.4,1.23-5.139-.218s-2.252-3.69-1.141-5.01,3.4-1.23,5.129.218S275.866,112.641,274.765,113.95Z" transform="translate(-2.139 -0.871)" fill="#4cba74"/>
        <path id="Path_165" data-name="Path 165" d="M328.275,33.584A13.809,13.809,0,0,1,350.2,22.413a13.809,13.809,0,1,0-19.245,19.275A13.71,13.71,0,0,1,328.275,33.584Z" transform="translate(-2.596 -0.143)" fill="#70a08b"/>
        <path id="Path_166" data-name="Path 166" d="M304.664,66.837A10.476,10.476,0,0,1,316.1,81.6,10.476,10.476,0,1,0,299,69.952,10.436,10.436,0,0,1,304.664,66.837Z" transform="translate(-2.387 -0.52)" fill="#70a08b"/>
        <path id="Path_167" data-name="Path 167" d="M318.366,57.713A5.863,5.863,0,1,1,312.5,51.85a5.863,5.863,0,0,1,5.863,5.863Z" transform="translate(-2.448 -0.424)" fill="#fff"/>
        <path id="Path_168" data-name="Path 168" d="M337.036,56.893a5.863,5.863,0,1,1-1.707-4.165,5.863,5.863,0,0,1,1.707,4.165Z" transform="translate(-2.597 -0.417)" fill="#fff"/>
        <path id="Path_169" data-name="Path 169" d="M355.716,56.073a5.863,5.863,0,1,1-5.863-5.863,5.863,5.863,0,0,1,5.863,5.863Z" transform="translate(-2.746 -0.411)" fill="#fff"/>
      </g>
    </g>
  </g>
</svg>
